<mxfile host="app.diagrams.net" modified="2024-01-17T21:24:01.818Z" agent="Mozilla/5.0 (Windows NT 10.0; Win64; x64) AppleWebKit/537.36 (KHTML, like Gecko) Chrome/120.0.0.0 Safari/537.36" etag="HcjsohBLIZc-6kD-ltl6" version="22.1.21" type="device">
  <diagram name="Page-1" id="eM-XBLeqtALRTBNZReLJ">
    <mxGraphModel dx="2625" dy="1325" grid="1" gridSize="10" guides="1" tooltips="1" connect="1" arrows="1" fold="1" page="1" pageScale="1" pageWidth="850" pageHeight="1100" math="0" shadow="0">
      <root>
        <mxCell id="0" />
        <mxCell id="1" parent="0" />
        <mxCell id="OKsubkH73d3Ot5aWKX_9-1" value="ActionsCollection&amp;nbsp;" style="swimlane;fontStyle=1;align=center;verticalAlign=top;childLayout=stackLayout;horizontal=1;startSize=26;horizontalStack=0;resizeParent=1;resizeParentMax=0;resizeLast=0;collapsible=1;marginBottom=0;whiteSpace=wrap;html=1;" vertex="1" parent="1">
          <mxGeometry x="650" y="209" width="160" height="32" as="geometry" />
        </mxCell>
        <mxCell id="OKsubkH73d3Ot5aWKX_9-3" value="" style="line;strokeWidth=1;fillColor=none;align=left;verticalAlign=middle;spacingTop=-1;spacingLeft=3;spacingRight=3;rotatable=0;labelPosition=right;points=[];portConstraint=eastwest;strokeColor=inherit;" vertex="1" parent="OKsubkH73d3Ot5aWKX_9-1">
          <mxGeometry y="26" width="160" height="6" as="geometry" />
        </mxCell>
        <mxCell id="OKsubkH73d3Ot5aWKX_9-54" value="FileProcessing" style="swimlane;fontStyle=1;align=center;verticalAlign=top;childLayout=stackLayout;horizontal=1;startSize=26;horizontalStack=0;resizeParent=1;resizeParentMax=0;resizeLast=0;collapsible=1;marginBottom=0;whiteSpace=wrap;html=1;" vertex="1" parent="1">
          <mxGeometry x="220" y="320" width="160" height="60" as="geometry" />
        </mxCell>
        <mxCell id="OKsubkH73d3Ot5aWKX_9-55" value="file stream" style="text;strokeColor=none;fillColor=none;align=left;verticalAlign=top;spacingLeft=4;spacingRight=4;overflow=hidden;rotatable=0;points=[[0,0.5],[1,0.5]];portConstraint=eastwest;whiteSpace=wrap;html=1;" vertex="1" parent="OKsubkH73d3Ot5aWKX_9-54">
          <mxGeometry y="26" width="160" height="26" as="geometry" />
        </mxCell>
        <mxCell id="OKsubkH73d3Ot5aWKX_9-56" value="" style="line;strokeWidth=1;fillColor=none;align=left;verticalAlign=middle;spacingTop=-1;spacingLeft=3;spacingRight=3;rotatable=0;labelPosition=right;points=[];portConstraint=eastwest;strokeColor=inherit;" vertex="1" parent="OKsubkH73d3Ot5aWKX_9-54">
          <mxGeometry y="52" width="160" height="8" as="geometry" />
        </mxCell>
        <mxCell id="OKsubkH73d3Ot5aWKX_9-5" value="StreamReplacer" style="html=1;whiteSpace=wrap;fillColor=#d5e8d4;strokeColor=#82b366;" vertex="1" parent="1">
          <mxGeometry x="590" y="121" width="110" height="50" as="geometry" />
        </mxCell>
        <mxCell id="OKsubkH73d3Ot5aWKX_9-6" value="TJsonCallBack" style="html=1;whiteSpace=wrap;" vertex="1" parent="1">
          <mxGeometry x="750" y="100" width="110" height="50" as="geometry" />
        </mxCell>
        <mxCell id="OKsubkH73d3Ot5aWKX_9-11" value="Writer" style="html=1;whiteSpace=wrap;fillColor=#fff2cc;strokeColor=#d6b656;" vertex="1" parent="1">
          <mxGeometry x="100" y="320" width="80" height="40" as="geometry" />
        </mxCell>
        <mxCell id="OKsubkH73d3Ot5aWKX_9-12" value="Reader" style="html=1;whiteSpace=wrap;fillColor=#dae8fc;strokeColor=#6c8ebf;" vertex="1" parent="1">
          <mxGeometry x="410" y="320" width="80" height="40" as="geometry" />
        </mxCell>
        <mxCell id="OKsubkH73d3Ot5aWKX_9-17" value="ReadFileProcessing&amp;nbsp;" style="swimlane;fontStyle=1;align=center;verticalAlign=top;childLayout=stackLayout;horizontal=1;startSize=26;horizontalStack=0;resizeParent=1;resizeParentMax=0;resizeLast=0;collapsible=1;marginBottom=0;whiteSpace=wrap;html=1;" vertex="1" parent="1">
          <mxGeometry x="330" y="410" width="160" height="34" as="geometry" />
        </mxCell>
        <mxCell id="OKsubkH73d3Ot5aWKX_9-19" value="" style="line;strokeWidth=1;fillColor=none;align=left;verticalAlign=middle;spacingTop=-1;spacingLeft=3;spacingRight=3;rotatable=0;labelPosition=right;points=[];portConstraint=eastwest;strokeColor=inherit;" vertex="1" parent="OKsubkH73d3Ot5aWKX_9-17">
          <mxGeometry y="26" width="160" height="8" as="geometry" />
        </mxCell>
        <mxCell id="OKsubkH73d3Ot5aWKX_9-21" value="WriteFileProcessing&amp;nbsp;" style="swimlane;fontStyle=1;align=center;verticalAlign=top;childLayout=stackLayout;horizontal=1;startSize=26;horizontalStack=0;resizeParent=1;resizeParentMax=0;resizeLast=0;collapsible=1;marginBottom=0;whiteSpace=wrap;html=1;" vertex="1" parent="1">
          <mxGeometry x="100" y="410" width="160" height="34" as="geometry" />
        </mxCell>
        <mxCell id="OKsubkH73d3Ot5aWKX_9-22" value="" style="line;strokeWidth=1;fillColor=none;align=left;verticalAlign=middle;spacingTop=-1;spacingLeft=3;spacingRight=3;rotatable=0;labelPosition=right;points=[];portConstraint=eastwest;strokeColor=inherit;" vertex="1" parent="OKsubkH73d3Ot5aWKX_9-21">
          <mxGeometry y="26" width="160" height="8" as="geometry" />
        </mxCell>
        <mxCell id="OKsubkH73d3Ot5aWKX_9-32" value="" style="endArrow=block;dashed=1;endFill=0;endSize=12;html=1;rounded=0;exitX=0.405;exitY=1.01;exitDx=0;exitDy=0;exitPerimeter=0;entryX=0.403;entryY=-0.071;entryDx=0;entryDy=0;entryPerimeter=0;" edge="1" parent="1" source="OKsubkH73d3Ot5aWKX_9-11" target="OKsubkH73d3Ot5aWKX_9-21">
          <mxGeometry width="160" relative="1" as="geometry">
            <mxPoint x="30" y="420" as="sourcePoint" />
            <mxPoint x="190" y="420" as="targetPoint" />
          </mxGeometry>
        </mxCell>
        <mxCell id="OKsubkH73d3Ot5aWKX_9-33" value="" style="endArrow=block;dashed=1;endFill=0;endSize=12;html=1;rounded=0;exitX=0.25;exitY=1;exitDx=0;exitDy=0;entryX=0.5;entryY=0;entryDx=0;entryDy=0;" edge="1" parent="1" source="OKsubkH73d3Ot5aWKX_9-12" target="OKsubkH73d3Ot5aWKX_9-17">
          <mxGeometry width="160" relative="1" as="geometry">
            <mxPoint x="30" y="420" as="sourcePoint" />
            <mxPoint x="190" y="420" as="targetPoint" />
          </mxGeometry>
        </mxCell>
        <mxCell id="OKsubkH73d3Ot5aWKX_9-36" value="ReadWriteFileProcessing" style="swimlane;fontStyle=1;align=center;verticalAlign=top;childLayout=stackLayout;horizontal=1;startSize=26;horizontalStack=0;resizeParent=1;resizeParentMax=0;resizeLast=0;collapsible=1;marginBottom=0;whiteSpace=wrap;html=1;" vertex="1" parent="1">
          <mxGeometry x="220" y="500" width="160" height="34" as="geometry" />
        </mxCell>
        <mxCell id="OKsubkH73d3Ot5aWKX_9-37" value="" style="line;strokeWidth=1;fillColor=none;align=left;verticalAlign=middle;spacingTop=-1;spacingLeft=3;spacingRight=3;rotatable=0;labelPosition=right;points=[];portConstraint=eastwest;strokeColor=inherit;" vertex="1" parent="OKsubkH73d3Ot5aWKX_9-36">
          <mxGeometry y="26" width="160" height="8" as="geometry" />
        </mxCell>
        <mxCell id="OKsubkH73d3Ot5aWKX_9-39" value="" style="endArrow=none;html=1;edgeStyle=orthogonalEdgeStyle;rounded=0;exitX=0.473;exitY=0.95;exitDx=0;exitDy=0;exitPerimeter=0;" edge="1" parent="1" source="OKsubkH73d3Ot5aWKX_9-22">
          <mxGeometry relative="1" as="geometry">
            <mxPoint x="30" y="420" as="sourcePoint" />
            <mxPoint x="260" y="500" as="targetPoint" />
            <Array as="points">
              <mxPoint x="176" y="472" />
              <mxPoint x="260" y="472" />
              <mxPoint x="260" y="500" />
            </Array>
          </mxGeometry>
        </mxCell>
        <mxCell id="OKsubkH73d3Ot5aWKX_9-40" value="parent" style="edgeLabel;resizable=0;html=1;align=left;verticalAlign=bottom;" connectable="0" vertex="1" parent="OKsubkH73d3Ot5aWKX_9-39">
          <mxGeometry x="-1" relative="1" as="geometry" />
        </mxCell>
        <mxCell id="OKsubkH73d3Ot5aWKX_9-41" value="child" style="edgeLabel;resizable=0;html=1;align=right;verticalAlign=bottom;" connectable="0" vertex="1" parent="OKsubkH73d3Ot5aWKX_9-39">
          <mxGeometry x="1" relative="1" as="geometry" />
        </mxCell>
        <mxCell id="OKsubkH73d3Ot5aWKX_9-42" value="" style="endArrow=none;html=1;edgeStyle=orthogonalEdgeStyle;rounded=0;exitX=0.5;exitY=1;exitDx=0;exitDy=0;" edge="1" parent="1" source="OKsubkH73d3Ot5aWKX_9-17">
          <mxGeometry relative="1" as="geometry">
            <mxPoint x="186" y="454" as="sourcePoint" />
            <mxPoint x="330" y="497" as="targetPoint" />
            <Array as="points">
              <mxPoint x="410" y="470" />
              <mxPoint x="330" y="470" />
              <mxPoint x="330" y="497" />
            </Array>
          </mxGeometry>
        </mxCell>
        <mxCell id="OKsubkH73d3Ot5aWKX_9-43" value="parent" style="edgeLabel;resizable=0;html=1;align=left;verticalAlign=bottom;" connectable="0" vertex="1" parent="OKsubkH73d3Ot5aWKX_9-42">
          <mxGeometry x="-1" relative="1" as="geometry" />
        </mxCell>
        <mxCell id="OKsubkH73d3Ot5aWKX_9-44" value="child" style="edgeLabel;resizable=0;html=1;align=right;verticalAlign=bottom;" connectable="0" vertex="1" parent="OKsubkH73d3Ot5aWKX_9-42">
          <mxGeometry x="1" relative="1" as="geometry" />
        </mxCell>
        <mxCell id="OKsubkH73d3Ot5aWKX_9-48" value="" style="endArrow=none;html=1;edgeStyle=orthogonalEdgeStyle;rounded=0;entryX=0.75;entryY=0;entryDx=0;entryDy=0;" edge="1" parent="1" target="OKsubkH73d3Ot5aWKX_9-21">
          <mxGeometry relative="1" as="geometry">
            <mxPoint x="280" y="380" as="sourcePoint" />
            <mxPoint x="280" y="380" as="targetPoint" />
            <Array as="points">
              <mxPoint x="280" y="390" />
              <mxPoint x="220" y="390" />
            </Array>
          </mxGeometry>
        </mxCell>
        <mxCell id="OKsubkH73d3Ot5aWKX_9-49" value="parent" style="edgeLabel;resizable=0;html=1;align=left;verticalAlign=bottom;" connectable="0" vertex="1" parent="OKsubkH73d3Ot5aWKX_9-48">
          <mxGeometry x="-1" relative="1" as="geometry" />
        </mxCell>
        <mxCell id="OKsubkH73d3Ot5aWKX_9-50" value="child" style="edgeLabel;resizable=0;html=1;align=right;verticalAlign=bottom;" connectable="0" vertex="1" parent="OKsubkH73d3Ot5aWKX_9-48">
          <mxGeometry x="1" relative="1" as="geometry" />
        </mxCell>
        <mxCell id="OKsubkH73d3Ot5aWKX_9-51" value="" style="endArrow=none;html=1;edgeStyle=orthogonalEdgeStyle;rounded=0;entryX=0.25;entryY=0;entryDx=0;entryDy=0;exitX=0.75;exitY=1;exitDx=0;exitDy=0;" edge="1" parent="1" source="OKsubkH73d3Ot5aWKX_9-54" target="OKsubkH73d3Ot5aWKX_9-17">
          <mxGeometry relative="1" as="geometry">
            <mxPoint x="330" y="360" as="sourcePoint" />
            <mxPoint x="230" y="420" as="targetPoint" />
            <Array as="points">
              <mxPoint x="340" y="390" />
              <mxPoint x="370" y="390" />
            </Array>
          </mxGeometry>
        </mxCell>
        <mxCell id="OKsubkH73d3Ot5aWKX_9-52" value="parent" style="edgeLabel;resizable=0;html=1;align=left;verticalAlign=bottom;" connectable="0" vertex="1" parent="OKsubkH73d3Ot5aWKX_9-51">
          <mxGeometry x="-1" relative="1" as="geometry" />
        </mxCell>
        <mxCell id="OKsubkH73d3Ot5aWKX_9-53" value="child" style="edgeLabel;resizable=0;html=1;align=right;verticalAlign=bottom;" connectable="0" vertex="1" parent="OKsubkH73d3Ot5aWKX_9-51">
          <mxGeometry x="1" relative="1" as="geometry" />
        </mxCell>
        <mxCell id="OKsubkH73d3Ot5aWKX_9-58" value="" style="endArrow=block;dashed=1;endFill=0;endSize=12;html=1;rounded=0;exitX=0.5;exitY=1;exitDx=0;exitDy=0;" edge="1" parent="1" source="OKsubkH73d3Ot5aWKX_9-6" target="OKsubkH73d3Ot5aWKX_9-1">
          <mxGeometry width="160" relative="1" as="geometry">
            <mxPoint x="82" y="110" as="sourcePoint" />
            <mxPoint x="114" y="158" as="targetPoint" />
          </mxGeometry>
        </mxCell>
        <mxCell id="OKsubkH73d3Ot5aWKX_9-59" value="" style="endArrow=block;dashed=1;endFill=0;endSize=12;html=1;rounded=0;exitX=0.5;exitY=1;exitDx=0;exitDy=0;entryX=0.349;entryY=0.026;entryDx=0;entryDy=0;entryPerimeter=0;" edge="1" parent="1" source="OKsubkH73d3Ot5aWKX_9-5" target="OKsubkH73d3Ot5aWKX_9-1">
          <mxGeometry width="160" relative="1" as="geometry">
            <mxPoint x="635" y="160" as="sourcePoint" />
            <mxPoint x="709" y="200" as="targetPoint" />
          </mxGeometry>
        </mxCell>
        <mxCell id="OKsubkH73d3Ot5aWKX_9-61" value="return" style="html=1;verticalAlign=bottom;endArrow=open;dashed=1;endSize=8;curved=0;rounded=0;exitX=1;exitY=1;exitDx=0;exitDy=0;entryX=0;entryY=0;entryDx=0;entryDy=0;" edge="1" parent="1" source="OKsubkH73d3Ot5aWKX_9-6" target="OKsubkH73d3Ot5aWKX_9-60">
          <mxGeometry relative="1" as="geometry">
            <mxPoint x="670" y="170" as="sourcePoint" />
            <mxPoint x="590" y="170" as="targetPoint" />
          </mxGeometry>
        </mxCell>
        <mxCell id="OKsubkH73d3Ot5aWKX_9-64" value="" style="group" vertex="1" connectable="0" parent="1">
          <mxGeometry x="910" y="120" width="170" height="70" as="geometry" />
        </mxCell>
        <mxCell id="OKsubkH73d3Ot5aWKX_9-63" value="AbstractBinaryLexeme&amp;nbsp;" style="html=1;whiteSpace=wrap;" vertex="1" parent="OKsubkH73d3Ot5aWKX_9-64">
          <mxGeometry x="20" y="20" width="150" height="50" as="geometry" />
        </mxCell>
        <mxCell id="OKsubkH73d3Ot5aWKX_9-62" value="AbstractBinaryLexeme&amp;nbsp;" style="html=1;whiteSpace=wrap;" vertex="1" parent="OKsubkH73d3Ot5aWKX_9-64">
          <mxGeometry x="10" y="10" width="150" height="50" as="geometry" />
        </mxCell>
        <mxCell id="OKsubkH73d3Ot5aWKX_9-60" value="AbstractBinaryLexeme&amp;nbsp;" style="html=1;whiteSpace=wrap;" vertex="1" parent="OKsubkH73d3Ot5aWKX_9-64">
          <mxGeometry width="150" height="50" as="geometry" />
        </mxCell>
        <mxCell id="OKsubkH73d3Ot5aWKX_9-65" value="" style="endArrow=diamondThin;endFill=1;endSize=24;html=1;rounded=0;entryX=1;entryY=1;entryDx=0;entryDy=0;exitX=0;exitY=0.75;exitDx=0;exitDy=0;" edge="1" parent="1" source="OKsubkH73d3Ot5aWKX_9-118" target="OKsubkH73d3Ot5aWKX_9-1">
          <mxGeometry width="160" relative="1" as="geometry">
            <mxPoint x="660" y="290" as="sourcePoint" />
            <mxPoint x="820" y="290" as="targetPoint" />
          </mxGeometry>
        </mxCell>
        <mxCell id="OKsubkH73d3Ot5aWKX_9-67" value="Creation Of StreamReplacerInstances" style="verticalAlign=top;align=left;spacingTop=8;spacingLeft=2;spacingRight=12;shape=cube;size=10;direction=south;fontStyle=4;html=1;whiteSpace=wrap;fillColor=none;" vertex="1" parent="1">
          <mxGeometry x="720" y="60" width="380" height="220" as="geometry" />
        </mxCell>
        <mxCell id="OKsubkH73d3Ot5aWKX_9-68" value="" style="endArrow=diamondThin;endFill=1;endSize=24;html=1;rounded=0;exitX=0.5;exitY=0;exitDx=0;exitDy=0;" edge="1" parent="1" source="OKsubkH73d3Ot5aWKX_9-69" target="OKsubkH73d3Ot5aWKX_9-1">
          <mxGeometry width="160" relative="1" as="geometry">
            <mxPoint x="580" y="410" as="sourcePoint" />
            <mxPoint x="710" y="290" as="targetPoint" />
          </mxGeometry>
        </mxCell>
        <mxCell id="OKsubkH73d3Ot5aWKX_9-69" value="&lt;p style=&quot;margin:0px;margin-top:4px;text-align:center;&quot;&gt;&lt;br&gt;&lt;b&gt;StreamReplacerInstance&lt;/b&gt;&lt;/p&gt;&lt;p style=&quot;margin:0px;margin-top:4px;text-align:center;&quot;&gt;&lt;b&gt;&lt;br&gt;&lt;/b&gt;&lt;/p&gt;" style="verticalAlign=top;align=left;overflow=fill;fontSize=12;fontFamily=Helvetica;html=1;whiteSpace=wrap;" vertex="1" parent="1">
          <mxGeometry x="880" y="320" width="170" height="50" as="geometry" />
        </mxCell>
        <mxCell id="OKsubkH73d3Ot5aWKX_9-71" value="&lt;p style=&quot;margin:0px;margin-top:4px;text-align:center;&quot;&gt;&lt;br&gt;&lt;b&gt;StreamReplacerInstance&lt;/b&gt;&lt;/p&gt;&lt;p style=&quot;margin:0px;margin-top:4px;text-align:center;&quot;&gt;&lt;b&gt;&lt;br&gt;&lt;/b&gt;&lt;/p&gt;" style="verticalAlign=top;align=left;overflow=fill;fontSize=12;fontFamily=Helvetica;html=1;whiteSpace=wrap;" vertex="1" parent="1">
          <mxGeometry x="810" y="380" width="170" height="50" as="geometry" />
        </mxCell>
        <mxCell id="OKsubkH73d3Ot5aWKX_9-72" value="&lt;p style=&quot;margin:0px;margin-top:4px;text-align:center;&quot;&gt;&lt;br&gt;&lt;b&gt;StreamReplacerInstance&lt;/b&gt;&lt;/p&gt;&lt;p style=&quot;margin:0px;margin-top:4px;text-align:center;&quot;&gt;&lt;b&gt;&lt;br&gt;&lt;/b&gt;&lt;/p&gt;" style="verticalAlign=top;align=left;overflow=fill;fontSize=12;fontFamily=Helvetica;html=1;whiteSpace=wrap;" vertex="1" parent="1">
          <mxGeometry x="750" y="440" width="170" height="50" as="geometry" />
        </mxCell>
        <mxCell id="OKsubkH73d3Ot5aWKX_9-73" value="" style="endArrow=diamondThin;endFill=1;endSize=24;html=1;rounded=0;exitX=0.364;exitY=-0.047;exitDx=0;exitDy=0;exitPerimeter=0;entryX=0.801;entryY=0.804;entryDx=0;entryDy=0;entryPerimeter=0;" edge="1" parent="1" source="OKsubkH73d3Ot5aWKX_9-71" target="OKsubkH73d3Ot5aWKX_9-3">
          <mxGeometry width="160" relative="1" as="geometry">
            <mxPoint x="963" y="298" as="sourcePoint" />
            <mxPoint x="760" y="220" as="targetPoint" />
          </mxGeometry>
        </mxCell>
        <mxCell id="OKsubkH73d3Ot5aWKX_9-74" value="" style="endArrow=diamondThin;endFill=1;endSize=24;html=1;rounded=0;exitX=0.25;exitY=0;exitDx=0;exitDy=0;entryX=0.749;entryY=1.118;entryDx=0;entryDy=0;entryPerimeter=0;" edge="1" parent="1" source="OKsubkH73d3Ot5aWKX_9-72" target="OKsubkH73d3Ot5aWKX_9-3">
          <mxGeometry width="160" relative="1" as="geometry">
            <mxPoint x="590" y="168.33000000000004" as="sourcePoint" />
            <mxPoint x="705" y="221.99666666666667" as="targetPoint" />
          </mxGeometry>
        </mxCell>
        <mxCell id="OKsubkH73d3Ot5aWKX_9-76" value="StreamReplacer" style="html=1;whiteSpace=wrap;fillColor=#d5e8d4;strokeColor=#82b366;" vertex="1" parent="1">
          <mxGeometry x="1000" y="440" width="110" height="50" as="geometry" />
        </mxCell>
        <mxCell id="OKsubkH73d3Ot5aWKX_9-77" value="" style="endArrow=block;dashed=1;endFill=0;endSize=12;html=1;rounded=0;exitX=0;exitY=0.5;exitDx=0;exitDy=0;" edge="1" parent="1" source="OKsubkH73d3Ot5aWKX_9-76" target="OKsubkH73d3Ot5aWKX_9-72">
          <mxGeometry width="160" relative="1" as="geometry">
            <mxPoint x="655" y="181" as="sourcePoint" />
            <mxPoint x="716" y="220" as="targetPoint" />
          </mxGeometry>
        </mxCell>
        <mxCell id="OKsubkH73d3Ot5aWKX_9-78" value="" style="endArrow=block;dashed=1;endFill=0;endSize=12;html=1;rounded=0;exitX=0;exitY=0;exitDx=0;exitDy=0;" edge="1" parent="1" source="OKsubkH73d3Ot5aWKX_9-76" target="OKsubkH73d3Ot5aWKX_9-71">
          <mxGeometry width="160" relative="1" as="geometry">
            <mxPoint x="1010" y="475" as="sourcePoint" />
            <mxPoint x="930" y="475" as="targetPoint" />
          </mxGeometry>
        </mxCell>
        <mxCell id="OKsubkH73d3Ot5aWKX_9-79" value="" style="endArrow=block;dashed=1;endFill=0;endSize=12;html=1;rounded=0;entryX=1;entryY=1;entryDx=0;entryDy=0;" edge="1" parent="1" source="OKsubkH73d3Ot5aWKX_9-76" target="OKsubkH73d3Ot5aWKX_9-69">
          <mxGeometry width="160" relative="1" as="geometry">
            <mxPoint x="1020" y="485" as="sourcePoint" />
            <mxPoint x="940" y="485" as="targetPoint" />
          </mxGeometry>
        </mxCell>
        <mxCell id="OKsubkH73d3Ot5aWKX_9-81" value="1" style="endArrow=open;html=1;endSize=12;startArrow=diamondThin;startSize=14;startFill=0;edgeStyle=orthogonalEdgeStyle;align=left;verticalAlign=bottom;rounded=0;entryX=0;entryY=0.5;entryDx=0;entryDy=0;exitX=0.381;exitY=-0.033;exitDx=0;exitDy=0;exitPerimeter=0;" edge="1" parent="1" source="OKsubkH73d3Ot5aWKX_9-11" target="OKsubkH73d3Ot5aWKX_9-1">
          <mxGeometry x="-1" y="3" relative="1" as="geometry">
            <mxPoint x="130" y="280" as="sourcePoint" />
            <mxPoint x="520" y="390" as="targetPoint" />
            <Array as="points">
              <mxPoint x="131" y="230" />
              <mxPoint x="130" y="230" />
              <mxPoint x="130" y="225" />
            </Array>
          </mxGeometry>
        </mxCell>
        <mxCell id="OKsubkH73d3Ot5aWKX_9-82" value="&lt;p style=&quot;margin:0px;margin-top:4px;text-align:center;&quot;&gt;&lt;br&gt;&lt;b&gt;StreamReplacerInstance&lt;/b&gt;&lt;/p&gt;&lt;p style=&quot;margin:0px;margin-top:4px;text-align:center;&quot;&gt;&lt;b&gt;&lt;br&gt;&lt;/b&gt;&lt;/p&gt;" style="verticalAlign=top;align=left;overflow=fill;fontSize=12;fontFamily=Helvetica;html=1;whiteSpace=wrap;fillColor=#fff2cc;strokeColor=#d6b656;" vertex="1" parent="1">
          <mxGeometry x="670" y="510" width="170" height="50" as="geometry" />
        </mxCell>
        <mxCell id="OKsubkH73d3Ot5aWKX_9-83" value="1" style="endArrow=open;html=1;endSize=12;startArrow=diamondThin;startSize=14;startFill=0;edgeStyle=orthogonalEdgeStyle;align=left;verticalAlign=bottom;rounded=0;entryX=0.19;entryY=-0.037;entryDx=0;entryDy=0;entryPerimeter=0;" edge="1" parent="1" target="OKsubkH73d3Ot5aWKX_9-82">
          <mxGeometry x="-1" y="3" relative="1" as="geometry">
            <mxPoint x="702" y="240" as="sourcePoint" />
            <mxPoint x="660" y="235" as="targetPoint" />
            <Array as="points">
              <mxPoint x="702" y="320" />
            </Array>
          </mxGeometry>
        </mxCell>
        <mxCell id="OKsubkH73d3Ot5aWKX_9-87" value="Reader" style="shape=umlLifeline;perimeter=lifelinePerimeter;whiteSpace=wrap;html=1;container=1;dropTarget=0;collapsible=0;recursiveResize=0;outlineConnect=0;portConstraint=eastwest;newEdgeStyle={&quot;curved&quot;:0,&quot;rounded&quot;:0};fillColor=#dae8fc;strokeColor=#6c8ebf;" vertex="1" parent="1">
          <mxGeometry x="110" y="660" width="100" height="260" as="geometry" />
        </mxCell>
        <mxCell id="OKsubkH73d3Ot5aWKX_9-88" value="Json data" style="shape=umlLifeline;perimeter=lifelinePerimeter;whiteSpace=wrap;html=1;container=1;dropTarget=0;collapsible=0;recursiveResize=0;outlineConnect=0;portConstraint=eastwest;newEdgeStyle={&quot;curved&quot;:0,&quot;rounded&quot;:0};participant=umlEntity;" vertex="1" parent="1">
          <mxGeometry x="240" y="660" width="60" height="260" as="geometry" />
        </mxCell>
        <mxCell id="OKsubkH73d3Ot5aWKX_9-89" value="ActionsCollection&amp;nbsp;" style="shape=umlLifeline;perimeter=lifelinePerimeter;whiteSpace=wrap;html=1;container=1;dropTarget=0;collapsible=0;recursiveResize=0;outlineConnect=0;portConstraint=eastwest;newEdgeStyle={&quot;curved&quot;:0,&quot;rounded&quot;:0};" vertex="1" parent="1">
          <mxGeometry x="380" y="720" width="110" height="200" as="geometry" />
        </mxCell>
        <mxCell id="OKsubkH73d3Ot5aWKX_9-90" value="return" style="html=1;verticalAlign=bottom;endArrow=open;dashed=1;endSize=8;curved=0;rounded=0;" edge="1" parent="1" source="OKsubkH73d3Ot5aWKX_9-87" target="OKsubkH73d3Ot5aWKX_9-88">
          <mxGeometry relative="1" as="geometry">
            <mxPoint x="690" y="550" as="sourcePoint" />
            <mxPoint x="610" y="550" as="targetPoint" />
          </mxGeometry>
        </mxCell>
        <mxCell id="OKsubkH73d3Ot5aWKX_9-91" value="Writer" style="shape=umlLifeline;perimeter=lifelinePerimeter;whiteSpace=wrap;html=1;container=1;dropTarget=0;collapsible=0;recursiveResize=0;outlineConnect=0;portConstraint=eastwest;newEdgeStyle={&quot;curved&quot;:0,&quot;rounded&quot;:0};participant=umlEntity;fillColor=#fff2cc;strokeColor=#d6b656;" vertex="1" parent="1">
          <mxGeometry x="340" y="610" width="40" height="390" as="geometry" />
        </mxCell>
        <mxCell id="OKsubkH73d3Ot5aWKX_9-92" value="" style="rounded=0;orthogonalLoop=1;jettySize=auto;html=1;endArrow=halfCircle;endFill=0;endSize=6;strokeWidth=1;sketch=0;fontSize=12;curved=1;" edge="1" target="OKsubkH73d3Ot5aWKX_9-91" parent="1" source="OKsubkH73d3Ot5aWKX_9-89">
          <mxGeometry relative="1" as="geometry">
            <mxPoint x="665" y="555" as="sourcePoint" />
          </mxGeometry>
        </mxCell>
        <mxCell id="OKsubkH73d3Ot5aWKX_9-93" value="" style="ellipse;whiteSpace=wrap;html=1;align=center;aspect=fixed;fillColor=none;strokeColor=none;resizable=0;perimeter=centerPerimeter;rotatable=0;allowArrows=0;points=[];outlineConnect=1;" vertex="1" parent="1">
          <mxGeometry x="640" y="530" width="10" height="10" as="geometry" />
        </mxCell>
        <mxCell id="OKsubkH73d3Ot5aWKX_9-94" value="return" style="html=1;verticalAlign=bottom;endArrow=open;dashed=1;endSize=8;curved=0;rounded=0;" edge="1" parent="1" source="OKsubkH73d3Ot5aWKX_9-87" target="OKsubkH73d3Ot5aWKX_9-89">
          <mxGeometry relative="1" as="geometry">
            <mxPoint x="690" y="550" as="sourcePoint" />
            <mxPoint x="610" y="550" as="targetPoint" />
          </mxGeometry>
        </mxCell>
        <mxCell id="OKsubkH73d3Ot5aWKX_9-95" value="replaces Chain Setup&lt;br&gt;" style="shape=umlLifeline;perimeter=lifelinePerimeter;whiteSpace=wrap;html=1;container=1;dropTarget=0;collapsible=0;recursiveResize=0;outlineConnect=0;portConstraint=eastwest;newEdgeStyle={&quot;curved&quot;:0,&quot;rounded&quot;:0};participant=umlControl;size=70;" vertex="1" parent="1">
          <mxGeometry x="510" y="630" width="110" height="290" as="geometry" />
        </mxCell>
        <mxCell id="OKsubkH73d3Ot5aWKX_9-96" value="Use" style="endArrow=open;endSize=12;dashed=1;html=1;rounded=0;" edge="1" parent="1" source="OKsubkH73d3Ot5aWKX_9-89" target="OKsubkH73d3Ot5aWKX_9-95">
          <mxGeometry width="160" relative="1" as="geometry">
            <mxPoint x="570" y="550" as="sourcePoint" />
            <mxPoint x="730" y="550" as="targetPoint" />
          </mxGeometry>
        </mxCell>
        <mxCell id="OKsubkH73d3Ot5aWKX_9-97" value="" style="html=1;whiteSpace=wrap;fillColor=#d5e8d4;strokeColor=#82b366;" vertex="1" parent="1">
          <mxGeometry x="600" y="800" width="70" height="30" as="geometry" />
        </mxCell>
        <mxCell id="OKsubkH73d3Ot5aWKX_9-99" value="" style="html=1;whiteSpace=wrap;fillColor=#d5e8d4;strokeColor=#82b366;" vertex="1" parent="1">
          <mxGeometry x="680" y="800" width="70" height="30" as="geometry" />
        </mxCell>
        <mxCell id="OKsubkH73d3Ot5aWKX_9-100" value="" style="html=1;whiteSpace=wrap;fillColor=#d5e8d4;strokeColor=#82b366;" vertex="1" parent="1">
          <mxGeometry x="760" y="800" width="70" height="30" as="geometry" />
        </mxCell>
        <mxCell id="OKsubkH73d3Ot5aWKX_9-104" value="" style="html=1;whiteSpace=wrap;fillColor=#fff2cc;strokeColor=#d6b656;" vertex="1" parent="1">
          <mxGeometry x="840" y="800" width="70" height="30" as="geometry" />
        </mxCell>
        <mxCell id="OKsubkH73d3Ot5aWKX_9-106" value="next" style="endArrow=block;endFill=1;html=1;edgeStyle=orthogonalEdgeStyle;align=left;verticalAlign=top;rounded=0;entryX=0.5;entryY=0;entryDx=0;entryDy=0;" edge="1" parent="1" source="OKsubkH73d3Ot5aWKX_9-95" target="OKsubkH73d3Ot5aWKX_9-97">
          <mxGeometry x="-1" relative="1" as="geometry">
            <mxPoint x="420" y="740" as="sourcePoint" />
            <mxPoint x="580" y="740" as="targetPoint" />
          </mxGeometry>
        </mxCell>
        <mxCell id="OKsubkH73d3Ot5aWKX_9-108" value="next" style="endArrow=block;endFill=1;html=1;edgeStyle=orthogonalEdgeStyle;align=left;verticalAlign=top;rounded=0;entryX=0.5;entryY=0;entryDx=0;entryDy=0;exitX=0.75;exitY=0;exitDx=0;exitDy=0;" edge="1" parent="1" source="OKsubkH73d3Ot5aWKX_9-97" target="OKsubkH73d3Ot5aWKX_9-99">
          <mxGeometry x="-1" relative="1" as="geometry">
            <mxPoint x="575" y="785" as="sourcePoint" />
            <mxPoint x="645" y="810" as="targetPoint" />
          </mxGeometry>
        </mxCell>
        <mxCell id="OKsubkH73d3Ot5aWKX_9-110" value="next" style="endArrow=block;endFill=1;html=1;edgeStyle=orthogonalEdgeStyle;align=left;verticalAlign=top;rounded=0;entryX=0.5;entryY=1;entryDx=0;entryDy=0;exitX=0.589;exitY=0.974;exitDx=0;exitDy=0;exitPerimeter=0;" edge="1" parent="1" source="OKsubkH73d3Ot5aWKX_9-99" target="OKsubkH73d3Ot5aWKX_9-100">
          <mxGeometry x="-1" relative="1" as="geometry">
            <mxPoint x="585" y="795" as="sourcePoint" />
            <mxPoint x="655" y="820" as="targetPoint" />
          </mxGeometry>
        </mxCell>
        <mxCell id="OKsubkH73d3Ot5aWKX_9-112" value="next" style="endArrow=block;endFill=1;html=1;edgeStyle=orthogonalEdgeStyle;align=left;verticalAlign=top;rounded=0;entryX=0.5;entryY=0;entryDx=0;entryDy=0;exitX=0.5;exitY=0;exitDx=0;exitDy=0;" edge="1" parent="1" source="OKsubkH73d3Ot5aWKX_9-100" target="OKsubkH73d3Ot5aWKX_9-104">
          <mxGeometry x="-1" relative="1" as="geometry">
            <mxPoint x="663" y="810" as="sourcePoint" />
            <mxPoint x="725" y="810" as="targetPoint" />
          </mxGeometry>
        </mxCell>
        <mxCell id="OKsubkH73d3Ot5aWKX_9-127" style="edgeStyle=orthogonalEdgeStyle;rounded=0;orthogonalLoop=1;jettySize=auto;html=1;entryX=0;entryY=0.5;entryDx=0;entryDy=0;" edge="1" parent="1" source="OKsubkH73d3Ot5aWKX_9-114" target="OKsubkH73d3Ot5aWKX_9-115">
          <mxGeometry relative="1" as="geometry" />
        </mxCell>
        <mxCell id="OKsubkH73d3Ot5aWKX_9-114" value="Read Json" style="ellipse;whiteSpace=wrap;html=1;" vertex="1" parent="1">
          <mxGeometry x="50" y="970" width="90" height="60" as="geometry" />
        </mxCell>
        <mxCell id="OKsubkH73d3Ot5aWKX_9-129" style="edgeStyle=orthogonalEdgeStyle;rounded=0;orthogonalLoop=1;jettySize=auto;html=1;exitX=1;exitY=0.5;exitDx=0;exitDy=0;entryX=0;entryY=0.5;entryDx=0;entryDy=0;" edge="1" parent="1" source="OKsubkH73d3Ot5aWKX_9-115" target="OKsubkH73d3Ot5aWKX_9-116">
          <mxGeometry relative="1" as="geometry" />
        </mxCell>
        <mxCell id="OKsubkH73d3Ot5aWKX_9-115" value="Create Writer for DEST file. Providing last StreamReplacer for chain" style="ellipse;whiteSpace=wrap;html=1;" vertex="1" parent="1">
          <mxGeometry x="180" y="970" width="200" height="60" as="geometry" />
        </mxCell>
        <mxCell id="OKsubkH73d3Ot5aWKX_9-130" style="edgeStyle=orthogonalEdgeStyle;rounded=0;orthogonalLoop=1;jettySize=auto;html=1;exitX=1;exitY=0.5;exitDx=0;exitDy=0;entryX=0;entryY=0.5;entryDx=0;entryDy=0;" edge="1" parent="1" source="OKsubkH73d3Ot5aWKX_9-116" target="OKsubkH73d3Ot5aWKX_9-117">
          <mxGeometry relative="1" as="geometry" />
        </mxCell>
        <mxCell id="OKsubkH73d3Ot5aWKX_9-116" value="Create ActionsCollection&amp;nbsp;" style="ellipse;whiteSpace=wrap;html=1;" vertex="1" parent="1">
          <mxGeometry x="400" y="970" width="110" height="60" as="geometry" />
        </mxCell>
        <mxCell id="OKsubkH73d3Ot5aWKX_9-131" style="edgeStyle=orthogonalEdgeStyle;rounded=0;orthogonalLoop=1;jettySize=auto;html=1;" edge="1" parent="1" source="OKsubkH73d3Ot5aWKX_9-117" target="OKsubkH73d3Ot5aWKX_9-123">
          <mxGeometry relative="1" as="geometry" />
        </mxCell>
        <mxCell id="OKsubkH73d3Ot5aWKX_9-117" value="Read the source file" style="ellipse;whiteSpace=wrap;html=1;" vertex="1" parent="1">
          <mxGeometry x="530" y="970" width="90" height="60" as="geometry" />
        </mxCell>
        <mxCell id="OKsubkH73d3Ot5aWKX_9-118" value="Dictionary" style="swimlane;fontStyle=1;align=center;verticalAlign=top;childLayout=stackLayout;horizontal=1;startSize=26;horizontalStack=0;resizeParent=1;resizeParentMax=0;resizeLast=0;collapsible=1;marginBottom=0;whiteSpace=wrap;html=1;" vertex="1" parent="1">
          <mxGeometry x="910" y="230" width="160" height="34" as="geometry" />
        </mxCell>
        <mxCell id="OKsubkH73d3Ot5aWKX_9-119" value="" style="line;strokeWidth=1;fillColor=none;align=left;verticalAlign=middle;spacingTop=-1;spacingLeft=3;spacingRight=3;rotatable=0;labelPosition=right;points=[];portConstraint=eastwest;strokeColor=inherit;" vertex="1" parent="OKsubkH73d3Ot5aWKX_9-118">
          <mxGeometry y="26" width="160" height="8" as="geometry" />
        </mxCell>
        <mxCell id="OKsubkH73d3Ot5aWKX_9-120" value="" style="endArrow=diamondThin;endFill=1;endSize=24;html=1;rounded=0;entryX=0.426;entryY=0.007;entryDx=0;entryDy=0;entryPerimeter=0;exitX=0.25;exitY=1;exitDx=0;exitDy=0;" edge="1" parent="1" source="OKsubkH73d3Ot5aWKX_9-63" target="OKsubkH73d3Ot5aWKX_9-118">
          <mxGeometry width="160" relative="1" as="geometry">
            <mxPoint x="540" y="130" as="sourcePoint" />
            <mxPoint x="700" y="130" as="targetPoint" />
          </mxGeometry>
        </mxCell>
        <mxCell id="OKsubkH73d3Ot5aWKX_9-122" value="" style="endArrow=block;dashed=1;endFill=0;endSize=12;html=1;rounded=0;exitX=0;exitY=1;exitDx=0;exitDy=0;entryX=1;entryY=0.5;entryDx=0;entryDy=0;" edge="1" parent="1" source="OKsubkH73d3Ot5aWKX_9-76" target="OKsubkH73d3Ot5aWKX_9-82">
          <mxGeometry width="160" relative="1" as="geometry">
            <mxPoint x="1010" y="475" as="sourcePoint" />
            <mxPoint x="930" y="475" as="targetPoint" />
          </mxGeometry>
        </mxCell>
        <mxCell id="OKsubkH73d3Ot5aWKX_9-141" style="edgeStyle=orthogonalEdgeStyle;rounded=0;orthogonalLoop=1;jettySize=auto;html=1;entryX=0;entryY=0.5;entryDx=0;entryDy=0;" edge="1" parent="1" source="OKsubkH73d3Ot5aWKX_9-123" target="OKsubkH73d3Ot5aWKX_9-133">
          <mxGeometry relative="1" as="geometry" />
        </mxCell>
        <mxCell id="OKsubkH73d3Ot5aWKX_9-123" value="Send bytes to StreamReplacer (ActionsCollection)" style="ellipse;whiteSpace=wrap;html=1;" vertex="1" parent="1">
          <mxGeometry x="645" y="970" width="140" height="60" as="geometry" />
        </mxCell>
        <mxCell id="OKsubkH73d3Ot5aWKX_9-124" value="" style="ellipse;html=1;shape=endState;fillColor=#000000;strokeColor=#ff0000;" vertex="1" parent="1">
          <mxGeometry x="1080" y="985" width="30" height="30" as="geometry" />
        </mxCell>
        <mxCell id="OKsubkH73d3Ot5aWKX_9-132" value="Send bytes" style="endArrow=open;endSize=12;dashed=1;html=1;rounded=0;exitX=0.5;exitY=0;exitDx=0;exitDy=0;entryX=0.5;entryY=1;entryDx=0;entryDy=0;" edge="1" parent="1" source="OKsubkH73d3Ot5aWKX_9-123" target="OKsubkH73d3Ot5aWKX_9-97">
          <mxGeometry width="160" relative="1" as="geometry">
            <mxPoint x="540" y="750" as="sourcePoint" />
            <mxPoint x="700" y="750" as="targetPoint" />
          </mxGeometry>
        </mxCell>
        <mxCell id="OKsubkH73d3Ot5aWKX_9-139" style="edgeStyle=orthogonalEdgeStyle;rounded=0;orthogonalLoop=1;jettySize=auto;html=1;entryX=0;entryY=0.5;entryDx=0;entryDy=0;" edge="1" parent="1" source="OKsubkH73d3Ot5aWKX_9-133" target="OKsubkH73d3Ot5aWKX_9-124">
          <mxGeometry relative="1" as="geometry" />
        </mxCell>
        <mxCell id="OKsubkH73d3Ot5aWKX_9-133" value="Writer writes data to file" style="ellipse;whiteSpace=wrap;html=1;" vertex="1" parent="1">
          <mxGeometry x="890" y="975" width="140" height="50" as="geometry" />
        </mxCell>
        <mxCell id="OKsubkH73d3Ot5aWKX_9-138" style="edgeStyle=orthogonalEdgeStyle;rounded=0;orthogonalLoop=1;jettySize=auto;html=1;exitX=0.5;exitY=1;exitDx=0;exitDy=0;" edge="1" parent="1" source="OKsubkH73d3Ot5aWKX_9-133" target="OKsubkH73d3Ot5aWKX_9-133">
          <mxGeometry relative="1" as="geometry" />
        </mxCell>
        <mxCell id="OKsubkH73d3Ot5aWKX_9-140" value="Writing bytes&amp;nbsp;in Writer" style="endArrow=open;endSize=12;dashed=1;html=1;rounded=0;exitX=1;exitY=1;exitDx=0;exitDy=0;entryX=0.5;entryY=0;entryDx=0;entryDy=0;" edge="1" parent="1" source="OKsubkH73d3Ot5aWKX_9-104" target="OKsubkH73d3Ot5aWKX_9-133">
          <mxGeometry width="160" relative="1" as="geometry">
            <mxPoint x="725" y="980" as="sourcePoint" />
            <mxPoint x="645" y="840" as="targetPoint" />
          </mxGeometry>
        </mxCell>
      </root>
    </mxGraphModel>
  </diagram>
</mxfile>
